<svg width="22" height="30" viewBox="0 0 22 30" fill="none" xmlns="http://www.w3.org/2000/svg">
<rect y="25" width="22" height="5" rx="2.5" fill="white"/>
<path d="M9.09668 9.58203V11.5332C9.09668 12.582 9.00293 13.4668 8.81543 14.1875C8.62793 14.9082 8.3584 15.4883 8.00684 15.9277C7.65527 16.3672 7.23047 16.6865 6.73242 16.8857C6.24023 17.0791 5.68359 17.1758 5.0625 17.1758C4.57031 17.1758 4.11621 17.1143 3.7002 16.9912C3.28418 16.8682 2.90918 16.6719 2.5752 16.4023C2.24707 16.127 1.96582 15.7695 1.73145 15.3301C1.49707 14.8906 1.31836 14.3574 1.19531 13.7305C1.07227 13.1035 1.01074 12.3711 1.01074 11.5332V9.58203C1.01074 8.5332 1.10449 7.6543 1.29199 6.94531C1.48535 6.23633 1.75781 5.66797 2.10938 5.24023C2.46094 4.80664 2.88281 4.49609 3.375 4.30859C3.87305 4.12109 4.42969 4.02734 5.04492 4.02734C5.54297 4.02734 6 4.08887 6.41602 4.21191C6.83789 4.3291 7.21289 4.51953 7.54102 4.7832C7.86914 5.04102 8.14746 5.38672 8.37598 5.82031C8.61035 6.24805 8.78906 6.77246 8.91211 7.39355C9.03516 8.01465 9.09668 8.74414 9.09668 9.58203ZM7.46191 11.7969V9.30957C7.46191 8.73535 7.42676 8.23145 7.35645 7.79785C7.29199 7.3584 7.19531 6.9834 7.06641 6.67285C6.9375 6.3623 6.77344 6.11035 6.57422 5.91699C6.38086 5.72363 6.15527 5.58301 5.89746 5.49512C5.64551 5.40137 5.36133 5.35449 5.04492 5.35449C4.6582 5.35449 4.31543 5.42773 4.0166 5.57422C3.71777 5.71484 3.46582 5.94043 3.26074 6.25098C3.06152 6.56152 2.90918 6.96875 2.80371 7.47266C2.69824 7.97656 2.64551 8.58887 2.64551 9.30957V11.7969C2.64551 12.3711 2.67773 12.8779 2.74219 13.3174C2.8125 13.7568 2.91504 14.1377 3.0498 14.46C3.18457 14.7764 3.34863 15.0371 3.54199 15.2422C3.73535 15.4473 3.95801 15.5996 4.20996 15.6992C4.46777 15.793 4.75195 15.8398 5.0625 15.8398C5.46094 15.8398 5.80957 15.7637 6.1084 15.6113C6.40723 15.459 6.65625 15.2217 6.85547 14.8994C7.06055 14.5713 7.21289 14.1523 7.3125 13.6426C7.41211 13.127 7.46191 12.5117 7.46191 11.7969ZM15.0615 9.80176H16.2217C16.79 9.80176 17.2588 9.70801 17.6279 9.52051C18.0029 9.32715 18.2812 9.06641 18.4629 8.73828C18.6504 8.4043 18.7441 8.0293 18.7441 7.61328C18.7441 7.12109 18.6621 6.70801 18.498 6.37402C18.334 6.04004 18.0879 5.78809 17.7598 5.61816C17.4316 5.44824 17.0156 5.36328 16.5117 5.36328C16.0547 5.36328 15.6504 5.4541 15.2988 5.63574C14.9531 5.81152 14.6807 6.06348 14.4814 6.3916C14.2881 6.71973 14.1914 7.10645 14.1914 7.55176H12.5654C12.5654 6.90137 12.7295 6.30957 13.0576 5.77637C13.3857 5.24316 13.8457 4.81836 14.4375 4.50195C15.0352 4.18555 15.7266 4.02734 16.5117 4.02734C17.2852 4.02734 17.9619 4.16504 18.542 4.44043C19.1221 4.70996 19.5732 5.11426 19.8955 5.65332C20.2178 6.18652 20.3789 6.85156 20.3789 7.64844C20.3789 7.9707 20.3027 8.31641 20.1504 8.68555C20.0039 9.04883 19.7725 9.38867 19.4561 9.70508C19.1455 10.0215 18.7412 10.2822 18.2432 10.4873C17.7451 10.6865 17.1475 10.7861 16.4502 10.7861H15.0615V9.80176ZM15.0615 11.1377V10.1621H16.4502C17.2646 10.1621 17.9385 10.2588 18.4717 10.4521C19.0049 10.6455 19.4238 10.9033 19.7285 11.2256C20.0391 11.5479 20.2559 11.9023 20.3789 12.2891C20.5078 12.6699 20.5723 13.0508 20.5723 13.4316C20.5723 14.0293 20.4697 14.5596 20.2646 15.0225C20.0654 15.4854 19.7812 15.8779 19.4121 16.2002C19.0488 16.5225 18.6211 16.7656 18.1289 16.9297C17.6367 17.0938 17.1006 17.1758 16.5205 17.1758C15.9639 17.1758 15.4395 17.0967 14.9473 16.9385C14.4609 16.7803 14.0303 16.5518 13.6553 16.2529C13.2803 15.9482 12.9873 15.5762 12.7764 15.1367C12.5654 14.6914 12.46 14.1846 12.46 13.6162H14.0859C14.0859 14.0615 14.1826 14.4512 14.376 14.7852C14.5752 15.1191 14.8564 15.3799 15.2197 15.5674C15.5889 15.749 16.0225 15.8398 16.5205 15.8398C17.0186 15.8398 17.4463 15.7549 17.8037 15.585C18.167 15.4092 18.4453 15.1455 18.6387 14.7939C18.8379 14.4424 18.9375 14 18.9375 13.4668C18.9375 12.9336 18.8262 12.4971 18.6035 12.1572C18.3809 11.8115 18.0645 11.5566 17.6543 11.3926C17.25 11.2227 16.7725 11.1377 16.2217 11.1377H15.0615Z" fill="#8765DD"/>
</svg>
