<svg width="22" height="30" viewBox="0 0 22 30" fill="none" xmlns="http://www.w3.org/2000/svg">
<rect y="25" width="22" height="5" rx="2.5" fill="#603EBE"/>
<path d="M9.09668 9.58203V11.5332C9.09668 12.582 9.00293 13.4668 8.81543 14.1875C8.62793 14.9082 8.3584 15.4883 8.00684 15.9277C7.65527 16.3672 7.23047 16.6865 6.73242 16.8857C6.24023 17.0791 5.68359 17.1758 5.0625 17.1758C4.57031 17.1758 4.11621 17.1143 3.7002 16.9912C3.28418 16.8682 2.90918 16.6719 2.5752 16.4023C2.24707 16.127 1.96582 15.7695 1.73145 15.3301C1.49707 14.8906 1.31836 14.3574 1.19531 13.7305C1.07227 13.1035 1.01074 12.3711 1.01074 11.5332V9.58203C1.01074 8.5332 1.10449 7.6543 1.29199 6.94531C1.48535 6.23633 1.75781 5.66797 2.10938 5.24023C2.46094 4.80664 2.88281 4.49609 3.375 4.30859C3.87305 4.12109 4.42969 4.02734 5.04492 4.02734C5.54297 4.02734 6 4.08887 6.41602 4.21191C6.83789 4.3291 7.21289 4.51953 7.54102 4.7832C7.86914 5.04102 8.14746 5.38672 8.37598 5.82031C8.61035 6.24805 8.78906 6.77246 8.91211 7.39355C9.03516 8.01465 9.09668 8.74414 9.09668 9.58203ZM7.46191 11.7969V9.30957C7.46191 8.73535 7.42676 8.23145 7.35645 7.79785C7.29199 7.3584 7.19531 6.9834 7.06641 6.67285C6.9375 6.3623 6.77344 6.11035 6.57422 5.91699C6.38086 5.72363 6.15527 5.58301 5.89746 5.49512C5.64551 5.40137 5.36133 5.35449 5.04492 5.35449C4.6582 5.35449 4.31543 5.42773 4.0166 5.57422C3.71777 5.71484 3.46582 5.94043 3.26074 6.25098C3.06152 6.56152 2.90918 6.96875 2.80371 7.47266C2.69824 7.97656 2.64551 8.58887 2.64551 9.30957V11.7969C2.64551 12.3711 2.67773 12.8779 2.74219 13.3174C2.8125 13.7568 2.91504 14.1377 3.0498 14.46C3.18457 14.7764 3.34863 15.0371 3.54199 15.2422C3.73535 15.4473 3.95801 15.5996 4.20996 15.6992C4.46777 15.793 4.75195 15.8398 5.0625 15.8398C5.46094 15.8398 5.80957 15.7637 6.1084 15.6113C6.40723 15.459 6.65625 15.2217 6.85547 14.8994C7.06055 14.5713 7.21289 14.1523 7.3125 13.6426C7.41211 13.127 7.46191 12.5117 7.46191 11.7969ZM21.0732 15.6641V17H12.6973V15.8311L16.8896 11.1641C17.4053 10.5898 17.8037 10.1035 18.085 9.70508C18.3721 9.30078 18.5713 8.94043 18.6826 8.62402C18.7998 8.30176 18.8584 7.97363 18.8584 7.63965C18.8584 7.21777 18.7705 6.83691 18.5947 6.49707C18.4248 6.15137 18.1729 5.87598 17.8389 5.6709C17.5049 5.46582 17.1006 5.36328 16.626 5.36328C16.0576 5.36328 15.583 5.47461 15.2021 5.69727C14.8271 5.91406 14.5459 6.21875 14.3584 6.61133C14.1709 7.00391 14.0771 7.45508 14.0771 7.96484H12.4512C12.4512 7.24414 12.6094 6.58496 12.9258 5.9873C13.2422 5.38965 13.7109 4.91504 14.332 4.56348C14.9531 4.20605 15.7178 4.02734 16.626 4.02734C17.4346 4.02734 18.126 4.1709 18.7002 4.45801C19.2744 4.73926 19.7139 5.1377 20.0186 5.65332C20.3291 6.16309 20.4844 6.76074 20.4844 7.44629C20.4844 7.82129 20.4199 8.20215 20.291 8.58887C20.168 8.96973 19.9951 9.35059 19.7725 9.73145C19.5557 10.1123 19.3008 10.4873 19.0078 10.8564C18.7207 11.2256 18.4131 11.5889 18.085 11.9463L14.6572 15.6641H21.0732Z" fill="black"/>
</svg>
